<?xml version="1.0" standalone="no"?>
<!DOCTYPE svg PUBLIC "-//W3C//DTD SVG 20010904//EN"
 "http://www.w3.org/TR/2001/REC-SVG-20010904/DTD/svg10.dtd">
<svg version="1.0" xmlns="http://www.w3.org/2000/svg"
 width="588.000000pt" height="588.000000pt" viewBox="0 0 588.000000 588.000000"
 preserveAspectRatio="xMidYMid meet">
<metadata>
Created by potrace 1.11, written by Peter Selinger 2001-2013
</metadata>
<g transform="translate(0.000000,588.000000) scale(0.100000,-0.100000)"
fill="#000000" stroke="none">
<path d="M4927 5866 c-8 -8 -27 -16 -43 -18 -40 -4 -44 -38 -7 -59 15 -9 34
-14 41 -12 6 3 12 0 12 -6 0 -6 -7 -11 -15 -11 -8 0 -15 -4 -15 -10 0 -5 -7
-10 -16 -10 -9 0 -14 -7 -12 -17 2 -10 8 -18 13 -18 17 0 35 -16 35 -31 0 -8
-8 -14 -18 -14 -20 0 -42 -37 -42 -69 0 -36 24 -44 81 -27 65 20 129 20 154 2
25 -18 13 -44 -22 -48 -23 -2 -28 -8 -29 -30 -1 -17 4 -28 12 -28 19 0 59 -43
59 -64 0 -21 -41 -41 -50 -26 -12 19 -23 10 -20 -16 3 -30 26 -47 70 -52 43
-5 73 -38 81 -88 3 -24 10 -41 15 -38 5 3 9 0 9 -5 0 -6 -4 -11 -9 -11 -5 0
-16 -3 -25 -6 -11 -4 -16 0 -17 12 0 12 -3 14 -6 6 -4 -10 -9 -10 -23 3 -17
15 -19 15 -34 -6 -13 -20 -16 -20 -22 -6 -3 9 -16 17 -28 16 -11 0 -15 -3 -8
-6 6 -2 12 -10 12 -16 1 -14 35 -57 46 -57 7 0 59 -52 141 -140 41 -45 102
-93 172 -135 18 -11 82 -64 121 -99 14 -13 33 -22 43 -21 12 2 24 -10 38 -41
12 -24 25 -41 30 -38 5 3 9 -1 9 -9 0 -8 13 -19 28 -25 16 -5 43 -23 61 -40
18 -16 45 -36 59 -43 29 -15 52 -34 52 -43 0 -18 -46 1 -133 54 -55 33 -103
60 -107 60 -4 0 -51 23 -103 50 -52 28 -101 50 -107 50 -17 0 -101 58 -135 94
-16 18 -48 54 -70 81 -69 86 -133 154 -139 148 -3 -4 -6 6 -6 21 0 44 -29 45
-95 4 -81 -52 -105 -71 -105 -83 0 -12 5 -12 27 -4 30 11 84 35 120 51 12 6
33 8 48 4 l26 -7 -21 -29 c-12 -17 -26 -30 -31 -30 -5 0 -22 -14 -39 -31 -24
-26 -30 -41 -30 -75 0 -37 -3 -44 -20 -44 -11 0 -20 -6 -20 -13 0 -7 9 -13 20
-13 11 0 20 6 20 13 0 14 19 28 27 19 3 -3 0 -12 -7 -21 -7 -8 -9 -22 -6 -32
4 -9 2 -19 -3 -23 -6 -3 -12 -15 -14 -25 -2 -11 -9 -32 -15 -46 -7 -17 -7 -40
-2 -65 6 -24 5 -43 -1 -51 -6 -7 -8 -16 -5 -22 3 -5 1 -22 -5 -37 -8 -23 -12
-25 -19 -14 -8 12 -10 11 -10 -6 0 -11 -8 -29 -18 -40 -17 -18 -25 -64 -11
-64 4 0 17 -14 29 -31 21 -28 21 -34 10 -77 -7 -26 -17 -51 -21 -56 -5 -6 -9
-18 -9 -28 0 -10 -9 -40 -21 -66 -12 -26 -25 -56 -30 -67 -4 -11 -17 -54 -29
-95 -11 -41 -27 -97 -35 -125 -8 -27 -17 -63 -21 -80 -3 -16 -15 -59 -25 -95
-20 -67 -41 -162 -60 -263 l-11 -57 -49 51 c-42 44 -59 55 -91 58 -5 1 -8 6
-8 12 0 8 5 7 15 -1 13 -11 14 -10 9 4 -4 11 -13 14 -30 10 -15 -4 -24 -2 -24
6 0 7 -7 10 -14 7 -11 -4 -13 -1 -9 10 4 11 2 14 -5 9 -7 -4 -12 -1 -12 8 0
10 6 13 18 10 9 -3 3 8 -16 26 -26 24 -37 29 -47 20 -9 -8 -15 -8 -20 0 -8 13
-45 13 -45 0 0 -5 -15 -10 -32 -10 -21 0 -28 3 -20 8 15 10 5 42 -14 42 -7 0
-17 7 -22 16 -7 12 -23 17 -54 17 -25 0 -49 -2 -54 -5 -13 -7 -46 30 -34 37 6
4 14 4 19 0 5 -3 12 -1 16 5 3 5 1 10 -4 10 -6 0 -11 7 -11 15 0 8 -4 15 -10
15 -5 0 -10 8 -10 18 0 14 -2 15 -9 2 -6 -8 -7 -18 -5 -22 3 -4 -1 -8 -10 -8
-8 0 -16 4 -18 10 -1 5 -18 10 -35 12 -28 2 -33 6 -34 28 0 14 -3 20 -5 15 -2
-6 -22 -9 -43 -7 -32 3 -38 7 -34 20 4 10 11 20 17 24 6 4 -1 8 -16 8 -27 0
-76 37 -70 53 1 4 -3 7 -9 7 -7 0 -22 11 -35 26 -13 14 -24 22 -24 18 0 -3
-25 19 -56 50 -31 31 -62 56 -69 56 -7 0 -20 16 -29 35 -9 19 -21 37 -26 40
-6 3 -10 18 -10 32 0 67 -74 125 -164 129 -153 7 -240 -131 -161 -252 17 -27
35 -32 35 -9 0 10 8 7 26 -10 32 -30 32 -30 75 -8 43 21 49 30 42 68 -10 56
-55 64 -105 18 -17 -15 -18 -15 -18 0 0 10 5 17 10 17 14 0 13 27 -2 32 -21 7
0 41 22 35 11 -3 18 -1 14 4 -8 13 44 31 81 27 30 -2 74 -24 87 -43 4 -5 4
-21 1 -34 -4 -18 -3 -22 7 -16 21 13 30 -17 24 -76 -5 -41 -2 -63 9 -80 8 -13
20 -45 28 -71 7 -26 16 -45 20 -42 11 6 21 -26 25 -76 3 -37 -1 -49 -23 -72
-34 -36 -53 -36 -53 0 0 20 -3 23 -9 13 -9 -15 -8 -38 4 -96 5 -24 2 -35 -16
-50 -12 -11 -19 -14 -15 -7 6 10 -1 12 -29 10 -44 -3 -51 7 -60 81 -6 50 -5
57 16 74 13 10 31 16 41 14 10 -3 21 -1 24 4 8 13 -51 11 -81 -3 -33 -15 -41
-4 -50 63 -6 39 -3 53 17 82 13 20 33 41 46 46 12 6 22 17 22 26 0 8 5 15 10
15 6 0 10 -10 10 -23 0 -13 4 -27 9 -33 5 -5 11 -29 14 -54 9 -70 18 -110 29
-116 6 -4 8 1 5 12 -3 11 -8 37 -12 58 -6 34 -5 38 8 28 12 -10 16 -9 21 4 14
36 6 82 -19 105 -20 20 -25 34 -25 77 0 65 -23 68 -28 4 l-3 -42 -42 0 c-43
-1 -64 -10 -111 -47 l-27 -22 16 -63 c9 -34 21 -71 26 -80 6 -12 6 -18 -1 -18
-5 0 -10 5 -10 12 0 6 -7 3 -15 -8 -8 -10 -15 -31 -15 -46 0 -16 -4 -28 -8
-28 -9 0 -68 -160 -64 -173 1 -4 -7 -3 -18 3 -24 13 -23 8 -6 58 l14 40 -71
18 c-123 30 -241 78 -276 113 -10 10 -47 34 -82 52 -35 19 -80 52 -101 73 -32
34 -38 37 -38 20 0 -12 3 -24 7 -28 4 -3 8 -14 9 -24 12 -83 17 -102 29 -112
16 -13 30 3 20 23 -4 6 1 3 9 -7 9 -11 16 -26 16 -33 0 -7 5 -13 11 -13 8 0 7
-5 -1 -15 -10 -12 -10 -19 -2 -27 9 -9 12 -9 12 1 0 7 7 20 17 29 15 16 16 15
11 -9 -3 -16 0 -26 8 -26 8 0 9 9 3 30 -10 34 7 79 21 56 5 -7 7 -16 4 -20 -2
-4 4 -5 13 -3 26 6 59 -48 89 -146 35 -115 65 -178 111 -231 21 -25 49 -66 63
-92 14 -26 28 -47 32 -47 4 0 12 15 17 33 5 17 10 25 10 17 1 -9 -8 -40 -19
-70 -10 -30 -19 -47 -20 -38 0 9 -4 18 -9 20 -5 2 -37 39 -71 83 -35 44 -67
83 -72 86 -4 3 -21 24 -36 46 -15 23 -58 79 -96 125 -38 46 -75 98 -82 115 -8
18 -21 33 -30 33 -20 0 -63 44 -92 94 -23 39 -23 40 -7 118 16 78 11 127 -15
163 -15 21 -40 112 -45 168 -4 31 -9 57 -13 57 -4 0 -45 -7 -92 -15 -47 -9
-106 -16 -132 -16 -27 -1 -48 -5 -48 -10 0 -5 -20 -9 -45 -9 -33 0 -45 -4 -45
-15 0 -8 -3 -14 -7 -13 -10 2 -46 -13 -53 -22 -8 -11 -60 -21 -60 -12 0 5 -14
9 -30 9 -17 0 -27 -3 -22 -6 13 -10 9 -51 -6 -51 -7 0 -11 4 -8 9 3 5 -2 12
-11 16 -10 3 -19 1 -21 -4 -5 -14 -32 -14 -32 0 0 6 -6 9 -12 6 -7 -2 -12 -10
-10 -16 1 -8 -8 -11 -25 -9 -16 2 -27 8 -26 16 2 6 -2 12 -7 12 -6 0 -11 -12
-11 -27 -1 -17 -3 -21 -6 -10 -5 20 -19 22 -26 5 -4 -10 -6 -10 -6 0 -1 16
-48 -33 -67 -70 -10 -19 -11 -34 -5 -51 13 -33 -2 -56 -23 -38 -14 12 -17 9
-22 -19 -4 -19 -15 -35 -28 -40 -12 -5 -16 -9 -9 -9 7 -1 10 -8 7 -16 -4 -10
-14 -13 -28 -9 -15 3 -28 -1 -37 -12 -8 -10 -9 -15 -2 -11 6 4 14 3 18 -3 3
-5 1 -10 -4 -10 -6 0 -11 -6 -11 -14 0 -14 -29 -26 -67 -26 -25 0 -30 -19 -11
-38 7 -7 8 -12 2 -12 -5 0 -15 9 -22 20 -7 11 -16 20 -20 20 -4 0 -27 -18 -51
-39 -25 -22 -48 -38 -53 -35 -4 3 -12 -5 -17 -18 -6 -13 -10 -17 -10 -10 -1
19 -21 14 -21 -5 0 -15 -2 -16 -10 -3 -8 13 -10 12 -10 -2 0 -20 -20 -25 -21
-5 0 6 -5 1 -11 -13 -6 -15 -12 -20 -15 -12 -3 6 -9 12 -15 12 -6 0 -8 -6 -5
-14 3 -8 -2 -20 -10 -28 -15 -11 -16 -11 -10 5 4 11 3 16 -3 12 -6 -3 -10 -15
-10 -25 0 -11 -9 -24 -20 -30 -11 -6 -20 -7 -20 -3 0 5 -39 7 -87 6 -68 -1
-88 -5 -95 -18 -6 -10 -17 -14 -28 -10 -10 3 -21 1 -25 -5 -3 -5 -26 -10 -50
-10 -35 0 -43 -3 -39 -15 7 -18 -17 -20 -33 -4 -8 8 -14 1 -23 -25 -12 -39
-15 -40 -117 -55 -76 -12 -157 -49 -224 -104 -29 -23 -81 -62 -118 -87 -67
-46 -72 -53 -111 -150 -40 -100 -44 -128 -31 -204 17 -102 46 -190 85 -255 19
-31 49 -84 67 -118 27 -49 173 -234 247 -311 6 -8 26 -35 44 -60 17 -26 44
-62 60 -80 15 -18 28 -37 28 -43 0 -5 9 -19 20 -31 25 -27 25 -38 0 -38 -18 0
-20 -7 -20 -84 0 -47 5 -88 10 -91 6 -3 10 0 10 7 0 8 5 6 11 -4 8 -15 25 -18
109 -18 l98 0 19 -37 c21 -45 54 -54 79 -24 13 15 25 18 48 14 17 -4 36 -13
42 -21 8 -11 13 -12 18 -3 4 6 0 14 -8 17 -23 9 -20 21 6 30 13 4 28 14 35 23
11 15 12 15 18 -1 7 -18 29 -15 56 9 14 11 17 11 22 1 6 -16 67 -23 67 -8 0 5
7 10 15 10 12 0 13 -4 6 -19 -8 -14 -7 -20 4 -25 9 -3 15 0 15 9 0 8 7 15 15
15 18 0 20 26 3 33 -7 2 -19 25 -27 51 -11 38 -16 44 -27 35 -11 -9 -14 -7
-14 10 0 19 -4 21 -22 15 -13 -4 -26 -11 -29 -17 -4 -6 -13 -5 -25 2 -11 6
-16 11 -11 12 14 3 22 6 47 16 21 9 22 12 8 18 -20 8 -41 -2 -33 -16 3 -5 -2
-6 -11 -2 -15 6 -15 8 6 25 20 16 19 23 -2 19 -41 -6 118 230 204 304 35 30
48 35 72 31 34 -7 38 -14 -46 74 -24 25 -56 61 -72 80 -73 89 -201 222 -225
233 -21 10 -27 20 -29 57 -3 35 -10 50 -34 72 -18 15 -35 28 -39 28 -4 0 -10
17 -14 38 -3 20 -20 55 -38 76 l-31 39 45 40 c105 94 332 151 539 136 205 -15
319 -45 496 -130 45 -21 86 -39 92 -39 6 0 16 -8 21 -17 6 -10 11 -14 11 -10
0 10 89 -51 116 -80 12 -12 24 -20 27 -17 3 3 12 -3 19 -15 7 -12 21 -21 30
-21 10 0 18 -6 18 -13 0 -8 18 -20 40 -27 21 -7 37 -17 34 -21 -6 -11 50 -39
78 -39 36 0 141 29 155 43 6 7 14 46 18 87 3 41 10 91 15 110 4 19 11 61 15
92 3 31 12 62 20 68 24 20 35 132 19 203 -4 20 -1 29 13 34 10 4 24 14 30 22
11 14 13 13 19 -6 3 -13 10 -23 15 -23 20 0 158 -253 159 -291 1 -10 4 -8 11
4 10 16 -2 48 -73 192 -27 53 23 -16 56 -77 30 -58 37 -65 46 -50 10 15 10 15
6 -3 -3 -11 -10 -41 -17 -67 -6 -27 -17 -48 -23 -48 -18 0 -71 -60 -88 -100
-26 -59 -30 -78 -17 -102 7 -12 8 -23 3 -25 -6 -2 -8 -29 -6 -61 2 -44 -4 -82
-27 -153 -16 -52 -37 -123 -46 -159 -9 -36 -23 -79 -31 -97 -7 -17 -14 -39
-14 -50 0 -10 -36 -63 -79 -118 -44 -55 -77 -103 -74 -107 2 -5 0 -8 -5 -8 -5
0 -17 -16 -28 -35 -10 -19 -24 -35 -30 -35 -7 0 -10 -8 -7 -20 3 -12 0 -20 -6
-20 -7 0 -10 -4 -7 -9 3 -5 -1 -23 -10 -40 -8 -17 -13 -35 -9 -41 3 -5 2 -10
-3 -10 -6 0 -14 -17 -19 -37 l-9 -38 -107 4 c-93 3 -107 1 -107 -13 0 -10 -9
-16 -22 -16 -13 -1 -36 -7 -53 -15 -30 -15 -30 -15 15 -8 51 9 104 9 140 3 17
-3 24 -1 23 7 -4 16 13 17 22 3 5 -8 11 -7 21 1 8 6 14 7 14 2 0 -16 73 -14
113 4 45 20 53 14 35 -24 -8 -15 -27 -74 -43 -131 -29 -104 -44 -127 -46 -69
-2 38 -2 27 7 106 5 47 4 62 -5 57 -6 -4 -11 -2 -11 3 0 6 5 11 11 11 5 0 7 5
4 10 -10 16 -25 11 -25 -8 0 -19 -29 -65 -30 -46 0 16 -60 4 -60 -12 0 -10 13
-14 40 -14 38 0 40 -2 30 -20 -8 -14 -8 -26 0 -40 6 -10 11 -62 13 -114 2 -88
1 -95 -18 -98 -13 -2 -23 -15 -29 -38 -5 -19 -24 -83 -42 -143 -21 -66 -31
-118 -28 -135 7 -34 -5 -49 -106 -129 -180 -142 -377 -251 -507 -278 -92 -20
-235 -28 -308 -18 -51 7 -60 11 -66 33 -7 24 -7 24 -8 3 -1 -29 -15 -29 -111
-2 -44 12 -89 18 -109 15 -19 -3 -42 -1 -52 5 -21 11 -25 -4 -13 -48 6 -21 8
-21 27 -8 12 8 32 15 45 15 15 0 21 4 16 12 -5 8 -2 9 10 5 10 -4 29 -7 43 -7
l26 0 -6 -173 c-4 -95 -10 -214 -13 -265 l-7 -92 272 0 271 0 0 23 c0 36 27
125 42 139 33 33 98 79 99 71 1 -4 0 -59 -1 -120 l-2 -113 116 0 c83 0 116 3
116 12 0 14 48 174 60 203 5 11 17 45 26 75 44 148 71 224 83 228 9 3 8 -6 -3
-33 -9 -20 -13 -41 -11 -46 3 -4 1 -16 -4 -26 -6 -10 -24 -65 -41 -123 -17
-58 -35 -114 -40 -125 -13 -28 -50 -158 -46 -162 1 -2 783 -2 1737 -1 l1734 3
-59 63 -59 62 -8 88 c-11 115 -15 128 -55 153 -32 19 -48 59 -24 59 6 0 10 6
10 14 0 23 102 40 287 49 22 1 45 5 49 10 4 4 16 7 26 7 13 0 18 7 18 25 0 24
-2 25 -65 25 -46 0 -64 -4 -62 -12 4 -22 -41 -21 -53 1 -13 24 -53 30 -44 6 7
-18 -21 -30 -98 -39 -63 -8 -68 -3 -48 48 6 17 17 26 32 27 l23 0 -22 11 c-30
14 -31 67 -3 93 18 16 34 18 163 12 79 -3 151 -9 160 -13 14 -5 17 0 17 32 l0
39 -78 5 c-42 2 -112 4 -154 3 -88 -1 -90 1 -63 77 8 23 15 52 15 63 0 11 20
62 45 114 25 51 45 99 45 106 0 7 11 35 25 63 14 27 24 42 23 34 -1 -18 15
-58 35 -82 15 -19 33 -25 22 -8 -3 5 -1 10 5 10 17 0 24 -31 9 -41 -11 -7 -9
-9 8 -9 12 0 25 -4 28 -10 3 -5 2 -10 -4 -10 -6 0 -7 -8 -4 -17 4 -11 8 -12
11 -5 2 7 10 12 18 12 12 0 14 34 14 199 0 182 -2 200 -17 204 -17 4 -17 5 0
6 11 1 17 9 17 26 0 22 -4 25 -34 25 -29 0 -42 -8 -78 -50 -38 -44 -47 -50
-83 -50 -22 0 -54 -9 -71 -19 -17 -10 -45 -22 -62 -25 -17 -4 -36 -14 -43 -22
-22 -27 -99 -18 -154 19 -28 17 -68 41 -89 52 -44 22 -137 110 -128 120 4 3 2
9 -3 13 -6 4 -16 20 -23 36 -16 36 -5 46 54 46 l42 0 -2 63 -1 62 -93 3 -93 3
2 -63 c2 -41 -1 -63 -9 -66 -14 -4 -15 2 -13 75 l1 53 -85 0 -85 0 0 -71 c0
-52 -3 -70 -12 -66 -14 4 -15 13 -17 90 l-1 47 -75 0 c-84 0 -78 7 -76 -92 0
-36 -3 -48 -14 -48 -12 0 -15 14 -15 65 l0 65 -76 0 -75 0 1 -57 c2 -78 2 -83
-10 -83 -6 0 -10 30 -10 70 l0 70 -71 0 -71 0 2 -62 c3 -88 2 -94 -11 -81 -7
7 -12 33 -11 60 1 80 -1 83 -69 83 l-60 0 4 -65 c4 -61 -4 -97 -18 -83 -4 4
-8 33 -10 65 -2 32 -4 61 -4 66 -1 4 -26 7 -56 7 -48 0 -55 -2 -55 -20 0 -20
13 -26 75 -33 17 -2 7 -5 -22 -6 l-53 -1 0 -39 c0 -22 -4 -43 -10 -46 -10 -6
-12 2 -14 55 -1 19 -8 26 -31 31 l-30 7 28 1 c22 1 27 6 27 26 0 23 -3 25 -50
25 l-50 0 0 -76 c0 -56 -3 -75 -12 -72 -9 3 -14 30 -16 76 l-3 72 -50 0 c-55
0 -77 -22 -46 -45 18 -13 24 -30 7 -20 -6 4 -10 -13 -10 -44 0 -49 -19 -83
-22 -39 0 13 -2 28 -3 33 -2 6 -3 18 -4 28 -1 13 -10 17 -46 17 l-45 0 0 -45
c0 -25 -4 -45 -10 -45 -5 0 -10 20 -10 45 l0 45 -46 0 c-43 0 -45 -1 -43 -27
4 -48 -1 -74 -11 -68 -5 3 -10 26 -10 51 l0 45 -40 -3 c-42 -2 -44 -5 -40 -60
1 -20 -3 -28 -14 -28 -12 0 -16 11 -16 45 0 41 -2 45 -22 41 -13 -3 -31 -5
-40 -5 -11 -1 -18 -9 -18 -21 0 -16 7 -20 35 -20 19 0 35 -4 35 -10 0 -5 -13
-10 -30 -10 -20 0 -30 -5 -30 -15 0 -8 9 -15 20 -15 27 0 25 -6 -10 -46 -48
-55 -53 -94 -45 -329 8 -227 2 -276 -37 -312 l-23 -22 -95 26 c-100 27 -167
36 -368 48 -128 8 -152 16 -152 56 0 12 7 19 18 19 10 0 24 6 31 12 7 7 36 13
64 13 51 0 52 0 50 29 -3 39 -20 54 -79 72 -27 7 -37 12 -21 10 20 -2 27 1 27
13 0 22 -27 37 -80 46 -55 9 -64 14 -52 28 5 7 19 44 32 82 23 73 49 137 50
120 0 -5 -14 -53 -30 -105 -33 -106 -34 -110 -20 -110 5 0 19 33 31 72 12 40
50 160 85 266 67 203 70 216 53 210 -10 -3 -25 -43 -85 -230 -15 -48 -30 -86
-32 -84 -2 2 9 44 23 92 15 49 35 121 46 159 11 39 28 93 38 120 11 28 27 77
36 110 30 102 57 175 67 175 8 0 5 -18 -9 -58 -3 -6 -3 -12 1 -12 3 0 15 32
27 72 12 40 33 84 45 97 13 14 21 27 19 30 -3 2 -15 -6 -26 -18 -12 -12 -24
-20 -27 -16 -4 3 8 19 25 35 33 31 50 39 37 18 -4 -7 -3 -8 4 -4 14 9 16 36 3
36 -5 0 -16 3 -24 6 -10 3 -18 -4 -25 -23 -6 -15 -11 -22 -11 -14 -1 12 115
374 165 516 l14 40 -5 -36 c-3 -19 -26 -96 -51 -170 -72 -216 -76 -230 -57
-244 9 -7 13 -17 9 -23 -4 -7 -3 -12 2 -12 14 0 22 37 22 100 0 54 56 251 84
295 7 11 21 49 30 85 10 36 25 74 32 85 13 19 14 18 14 -8 0 -40 19 -57 48
-44 19 9 22 16 17 39 -5 23 -3 28 12 28 24 0 136 -53 177 -85 41 -31 57 -17
22 18 -58 59 -153 98 -234 98 l-53 0 24 42 c26 46 173 233 244 311 25 28 49
61 53 75 5 21 13 26 37 26 17 0 45 10 62 23 23 17 31 19 31 8 0 -8 -7 -21 -15
-30 -8 -8 -15 -19 -15 -25 0 -15 37 -14 43 2 3 6 6 0 6 -15 1 -33 -25 -51 -50
-35 -27 17 -30 7 -18 -59 7 -32 11 -74 10 -92 -1 -20 3 -31 9 -27 5 3 10 12
10 19 0 17 25 38 33 29 4 -3 3 -11 -2 -17 -12 -17 -22 -48 -12 -42 4 3 17 -1
27 -9 15 -12 16 -16 5 -24 -7 -5 -12 -14 -9 -21 3 -9 13 -4 31 13 14 15 29 27
33 27 3 0 19 9 34 20 l28 20 23 -31 c14 -20 23 -49 25 -82 1 -33 8 -53 18 -59
20 -11 20 -37 1 -62 -16 -21 -3 -49 19 -40 11 4 30 -62 40 -138 1 -10 5 -21 9
-24 4 -4 7 -23 7 -41 0 -19 4 -42 10 -52 19 -36 51 -174 44 -193 -4 -15 -3
-18 6 -13 10 6 12 1 7 -23 -3 -16 -2 -45 3 -63 6 -21 6 -37 0 -43 -6 -6 -5
-16 1 -28 8 -14 6 -18 -7 -18 -16 0 -16 -11 1 -52 5 -13 2 -18 -9 -18 -9 0
-16 6 -16 13 0 9 -2 9 -9 -1 -6 -10 -10 -10 -21 3 -18 21 -60 20 -61 -2 0 -16
-1 -16 -11 -2 -10 14 -14 14 -41 1 -17 -8 -42 -15 -57 -16 -22 -1 -26 -5 -22
-21 6 -25 21 -45 34 -45 5 0 7 8 4 18 -3 9 -1 24 5 32 9 13 10 12 5 -2 -3 -10
-1 -20 4 -23 5 -3 6 -13 3 -21 -5 -13 -1 -15 15 -10 27 9 50 -3 31 -15 -11 -7
-11 -9 -1 -9 7 0 11 -4 8 -8 -3 -5 16 -19 41 -31 25 -12 55 -33 65 -47 11 -13
24 -22 29 -19 5 4 9 1 9 -4 0 -6 -9 -11 -21 -11 -11 0 -18 4 -15 9 3 5 -14 15
-39 22 -24 7 -42 15 -40 18 3 2 -16 14 -41 26 -25 12 -49 27 -53 32 -3 6 -16
13 -28 17 -20 6 -21 3 -25 -49 -1 -31 0 -64 4 -73 4 -9 7 -11 7 -4 1 13 31 17
31 4 0 -11 94 -9 102 3 5 7 14 6 28 -3 29 -18 100 -16 100 3 0 19 24 20 39 1
12 -15 80 -15 115 -1 10 4 21 4 25 -1 8 -11 111 -13 111 -2 0 13 38 9 43 -4 4
-10 6 -10 6 0 1 8 6 10 14 5 18 -12 91 -11 99 1 5 7 17 7 41 -2 43 -15 134
-16 139 -1 3 9 13 9 38 1 41 -13 152 -14 145 -2 -10 17 18 23 30 7 15 -21 161
-25 168 -4 3 9 9 9 28 0 28 -15 171 -14 180 0 4 6 15 6 25 2 42 -18 86 -11
119 20 18 17 50 36 72 43 22 7 57 24 78 38 87 59 139 56 185 -8 25 -34 29 -47
24 -76 l-7 -35 33 6 c18 4 59 7 91 7 l59 0 0 1950 0 1950 -469 0 c-392 0 -472
-2 -484 -14z m13 -226 c0 -5 -4 -10 -10 -10 -5 0 -10 5 -10 10 0 6 5 10 10 10
6 0 10 -4 10 -10z m-1463 -1442 c7 -6 13 -16 13 -22 0 -8 -2 -8 -8 0 -4 6 -15
10 -24 8 -10 -1 -18 2 -18 8 0 5 -10 9 -22 8 -13 -1 -39 -1 -58 0 l-35 2 30 8
c36 10 104 3 122 -12z m30 -43 c-15 -16 -19 -13 -11 9 3 9 10 13 15 10 5 -3 3
-11 -4 -19z m-1699 -174 c3 -8 -1 -12 -9 -9 -7 2 -15 10 -17 17 -3 8 1 12 9 9
7 -2 15 -10 17 -17z m642 9 c0 -5 -12 -10 -27 -9 l-28 1 25 8 c14 4 26 8 28 9
1 1 2 -3 2 -9z m1220 -81 c0 -18 -18 -9 -23 12 -4 16 -3 18 9 8 8 -6 14 -15
14 -20z m44 -174 c8 -38 20 -131 26 -206 10 -122 36 -277 55 -334 6 -18 4 -17
-14 3 -11 13 -23 40 -26 60 -10 55 -17 72 -22 47 -7 -35 -57 -145 -66 -145
-16 0 -18 29 -2 53 15 24 15 26 -2 35 -17 10 -17 11 -1 17 10 4 15 12 11 18
-4 6 -6 44 -6 84 1 40 -3 73 -8 73 -5 0 0 15 11 33 23 37 27 60 5 31 -14 -18
-14 -17 -15 14 0 17 2 32 4 32 2 0 11 3 19 6 10 3 17 -2 20 -13 13 -51 4 162
-9 222 -9 39 -18 84 -20 100 -7 48 24 -49 40 -130z m36 79 c0 -8 -4 -12 -10
-9 -5 3 -10 10 -10 16 0 5 5 9 10 9 6 0 10 -7 10 -16z m-93 -146 c-3 -7 -5 -2
-5 12 0 14 2 19 5 13 2 -7 2 -19 0 -25z m363 -4 c0 -2 -7 -4 -15 -4 -8 0 -15
4 -15 10 0 5 7 7 15 4 8 -4 15 -8 15 -10z m-320 -69 c0 -2 -9 -9 -20 -15 -15
-8 -20 -8 -20 3 0 7 9 13 20 14 11 1 20 0 20 -2z m-290 -31 c0 -16 -16 -19
-25 -4 -8 13 4 32 16 25 5 -4 9 -13 9 -21z m770 6 c0 -5 -2 -10 -4 -10 -3 0
-8 5 -11 10 -3 6 -1 10 4 10 6 0 11 -4 11 -10z m40 6 c0 -3 -4 -8 -10 -11 -5
-3 -10 -1 -10 4 0 6 5 11 10 11 6 0 10 -2 10 -4z m4 -35 c3 -4 3 -11 0 -14 -8
-8 -34 3 -34 14 0 11 27 12 34 0z m126 -41 c0 -5 -7 -10 -15 -10 -8 0 -15 -4
-15 -10 0 -5 6 -10 14 -10 8 0 18 -4 21 -10 3 -5 -2 -10 -13 -10 -10 0 -24 11
-30 25 -16 35 -16 35 13 35 14 0 25 -4 25 -10z m30 -5 c0 -8 -4 -15 -10 -15
-5 0 -10 7 -10 15 0 8 5 15 10 15 6 0 10 -7 10 -15z m30 -10 c0 -20 -5 -25
-22 -24 -19 1 -19 2 -5 6 10 3 16 11 13 18 -4 12 1 25 11 25 2 0 3 -11 3 -25z
m-136 6 c3 -5 0 -11 -7 -14 -8 -3 -14 1 -14 9 0 16 13 19 21 5z m-749 -35 c18
-17 9 -26 -27 -26 -26 0 -27 2 -16 20 15 24 24 25 43 6z m-237 -47 c12 -19 11
-20 -25 -14 -61 10 -72 17 -43 25 42 13 55 11 68 -11z m-74 -58 c-4 -17 -9
-30 -11 -27 -3 2 -2 19 2 36 9 41 17 33 9 -9z m1456 -71 c0 -5 -2 -10 -4 -10
-3 0 -8 5 -11 10 -3 6 -1 10 4 10 6 0 11 -4 11 -10z m-1489 -27 c-8 -15 -10
-15 -11 -2 0 17 10 32 18 25 2 -3 -1 -13 -7 -23z m-2701 -43 c0 -5 -2 -10 -4
-10 -3 0 -8 5 -11 10 -3 6 -1 10 4 10 6 0 11 -4 11 -10z m2670 -249 c0 -5 -9
-11 -20 -14 -22 -6 -28 8 -7 16 19 8 27 8 27 -2z m50 -66 c0 -8 -4 -15 -10
-15 -5 0 -10 7 -10 15 0 8 5 15 10 15 6 0 10 -7 10 -15z m-174 -132 c-8 -15
-15 -25 -16 -21 0 12 23 58 27 54 3 -2 -2 -17 -11 -33z m-13 -53 c-3 -12 -8
-19 -11 -16 -5 6 5 36 12 36 2 0 2 -9 -1 -20z m1767 -142 c0 -37 7 -72 30
-153 5 -16 11 -49 15 -72 6 -35 4 -43 -9 -43 -10 0 -16 9 -16 23 0 13 -4 27
-8 32 -12 14 -28 77 -43 162 -10 58 -10 75 1 88 19 22 30 9 30 -37z m-1896
-373 c-4 -8 -8 -15 -10 -15 -2 0 -4 7 -4 15 0 8 4 15 10 15 5 0 7 -7 4 -15z
m976 -99 c0 -3 -4 -8 -10 -11 -5 -3 -10 -1 -10 4 0 6 5 11 10 11 6 0 10 -2 10
-4z m-1089 -119 c-10 -29 -31 -90 -46 -137 -16 -47 -35 -95 -43 -107 -8 -13
-12 -29 -9 -37 7 -18 -18 -40 -34 -30 -8 4 -9 3 -5 -4 4 -7 1 -12 -9 -12 -9 0
-14 4 -11 9 4 5 1 11 -5 13 -7 2 -5 16 7 38 30 60 34 69 34 80 0 6 9 29 19 53
28 63 32 77 19 77 -6 0 -8 3 -4 8 4 4 12 7 18 7 6 0 19 16 30 35 10 19 24 43
29 53 21 37 28 4 10 -46z m-1461 -217 c0 -5 -7 -10 -16 -10 -8 0 -12 5 -9 10
3 6 10 10 16 10 5 0 9 -4 9 -10z m65 -20 c3 -5 3 -10 -2 -11 -4 0 -18 -2 -30
-5 -17 -3 -21 0 -17 11 7 17 40 20 49 5z m2475 -38 c0 -5 -13 -7 -30 -4 -16 2
-30 6 -30 8 0 2 14 4 30 4 17 0 30 -4 30 -8z m-380 -66 c0 -3 -4 -8 -10 -11
-5 -3 -10 -1 -10 4 0 6 5 11 10 11 6 0 10 -2 10 -4z m348 -59 c14 6 15 4 5 -9
-7 -8 -10 -18 -6 -21 3 -4 -1 -7 -10 -7 -13 0 -17 8 -16 33 1 17 3 24 6 15 3
-11 10 -15 21 -11z m-188 9 c0 -3 -4 -8 -10 -11 -5 -3 -10 -1 -10 4 0 6 5 11
10 11 6 0 10 -2 10 -4z m142 -26 c-2 -16 -8 -30 -13 -30 -10 0 -11 7 -3 38 9
33 21 27 16 -8z m98 9 c0 -6 -4 -7 -10 -4 -5 3 -10 11 -10 16 0 6 5 7 10 4 6
-3 10 -11 10 -16z m-150 -1 c0 -9 4 -8 10 2 8 13 10 12 10 -2 0 -20 -1 -21
-24 -12 -18 7 -22 24 -6 24 6 0 10 -6 10 -12z m87 -70 c-3 -7 -5 -2 -5 12 0
14 2 19 5 13 2 -7 2 -19 0 -25z m56 -5 c-7 -2 -21 -2 -30 0 -10 3 -4 5 12 5
17 0 24 -2 18 -5z m62 -3 c3 -5 1 -10 -4 -10 -6 0 -11 5 -11 10 0 6 2 10 4 10
3 0 8 -4 11 -10z m-81 -39 c-5 -23 -2 -29 16 -34 12 -3 19 -10 16 -16 -4 -5
-2 -12 3 -15 5 -3 11 0 14 8 6 16 -11 36 -30 36 -14 0 -18 16 -5 24 5 3 18 2
30 -1 18 -4 22 -13 22 -45 0 -26 4 -37 11 -32 6 3 9 19 5 35 -6 34 9 48 18 16
l6 -22 15 25 c13 23 14 23 15 4 0 -11 -9 -30 -20 -42 -26 -28 -25 -36 10 -65
23 -20 26 -26 14 -31 -19 -7 -37 2 -29 15 4 5 1 9 -5 9 -25 0 -4 -35 23 -38
28 -3 38 -22 11 -22 -8 0 -12 -4 -9 -10 3 -5 11 -10 16 -10 12 0 33 50 30 73
-1 9 4 17 13 17 19 0 30 -17 16 -25 -6 -4 -8 -11 -4 -16 4 -6 11 -6 20 2 18
14 18 -1 1 -25 -7 -9 -19 -16 -26 -14 -7 2 -16 -3 -19 -11 -3 -10 0 -12 12 -8
26 10 18 -7 -9 -20 -14 -6 -25 -7 -25 -2 0 5 -4 9 -10 9 -5 0 -9 -5 -7 -12 1
-6 -7 -13 -18 -15 -55 -10 -63 -14 -69 -38 -7 -29 -36 -33 -76 -12 -14 8 -47
12 -73 11 -28 -2 -45 1 -42 7 4 5 1 9 -4 9 -6 0 -11 -9 -11 -20 0 -17 -3 -19
-19 -10 -15 7 -23 6 -35 -5 -18 -19 -33 -19 -43 -1 -4 7 -18 19 -31 25 -28 15
-86 -1 -102 -27 -5 -10 -10 -12 -10 -4 0 6 -6 12 -14 12 -18 0 -24 20 -27 86
-2 40 2 56 19 74 15 16 19 27 12 35 -17 21 1 25 23 5 21 -21 37 -18 37 6 0 8
5 14 10 14 6 0 10 -4 10 -10 0 -5 18 -10 40 -10 37 0 39 2 46 36 5 26 10 34
22 29 8 -3 19 0 24 7 8 10 11 10 15 1 3 -9 10 -10 24 -3 10 6 19 8 19 4 0 -4
9 1 20 11 18 16 20 16 26 1 8 -21 43 -21 51 2 5 14 33 49 40 51 1 1 0 -12 -3
-28z m-137 -13 c-3 -8 -6 -5 -6 6 -1 11 2 17 5 13 3 -3 4 -12 1 -19z m293 -78
c0 -5 -4 -10 -10 -10 -5 0 -10 5 -10 10 0 6 5 10 10 10 6 0 10 -4 10 -10z
m-580 -40 c0 -5 -4 -10 -10 -10 -5 0 -10 5 -10 10 0 6 5 10 10 10 6 0 10 -4
10 -10z m-103 -82 c-3 -8 -6 -5 -6 6 -1 11 2 17 5 13 3 -3 4 -12 1 -19z m78 2
c3 -5 -1 -10 -9 -10 -9 0 -16 5 -16 10 0 6 4 10 9 10 6 0 13 -4 16 -10z m565
-105 c0 -8 -4 -15 -10 -15 -5 0 -10 7 -10 15 0 8 5 15 10 15 6 0 10 -7 10 -15z
m-130 -85 c0 -5 -4 -10 -10 -10 -5 0 -10 5 -10 10 0 6 5 10 10 10 6 0 10 -4
10 -10z m-200 -42 l25 -3 -23 -13 c-13 -8 -38 -14 -55 -14 -18 0 -38 -5 -44
-11 -9 -6 -13 -6 -13 1 0 13 24 22 57 22 20 0 23 3 14 13 -6 8 -8 17 -4 21 4
3 9 2 12 -3 3 -5 17 -11 31 -13z m-1033 -40 c-3 -8 -6 -5 -6 6 -1 11 2 17 5
13 3 -3 4 -12 1 -19z m-97 -50 c0 -2 -20 -65 -44 -140 -41 -126 -66 -188 -65
-163 0 16 23 99 31 111 4 6 10 30 14 54 4 24 13 55 21 69 7 14 13 33 13 42 0
17 9 29 22 29 4 0 8 -1 8 -2z"/>
<path d="M3786 1391 c-3 -4 6 -13 19 -19 23 -11 24 -10 13 8 -14 22 -24 25
-32 11z"/>
<path d="M3850 1350 c0 -19 3 -21 12 -12 9 9 9 15 0 24 -9 9 -12 7 -12 -12z"/>
<path d="M3910 1330 c0 -5 5 -10 11 -10 5 0 7 5 4 10 -3 6 -8 10 -11 10 -2 0
-4 -4 -4 -10z"/>
<path d="M3833 1305 c-22 -11 -22 -12 16 -23 47 -15 84 -15 76 -2 -3 6 -20 10
-36 10 -17 0 -28 4 -24 9 9 16 -8 19 -32 6z"/>
<path d="M3895 1250 c-3 -5 -1 -10 4 -10 6 0 11 5 11 10 0 6 -2 10 -4 10 -3 0
-8 -4 -11 -10z"/>
<path d="M3490 5263 c0 -5 17 -18 38 -31 20 -13 45 -37 55 -54 14 -25 20 -29
27 -18 7 12 12 11 29 -4 18 -16 18 -19 3 -37 -20 -23 -47 -26 -38 -3 4 12 2
15 -9 10 -8 -3 -37 -8 -65 -12 -28 -4 -53 -11 -56 -16 -4 -6 6 -8 22 -6 27 3
29 1 28 -29 -1 -18 2 -30 7 -27 5 3 9 11 9 19 0 8 5 17 11 21 9 5 10 -3 5 -30
-6 -31 -4 -36 12 -36 10 0 24 -6 32 -12 12 -11 12 -10 2 4 -10 12 -10 18 -2
23 7 4 18 -2 26 -13 16 -23 82 -73 70 -53 -5 8 -3 17 5 22 10 6 5 10 -18 15
-45 9 -43 28 2 21 l35 -6 -18 24 c-10 14 -21 20 -26 14 -17 -16 -22 -10 -24
27 -2 24 3 43 15 56 17 19 17 21 -12 44 -17 13 -33 24 -37 24 -3 0 -30 16 -59
35 -54 35 -69 41 -69 28z m110 -183 c0 -5 -2 -10 -4 -10 -3 0 -8 5 -11 10 -3
6 -1 10 4 10 6 0 11 -4 11 -10z"/>
<path d="M3410 5203 c-8 -2 -22 -7 -30 -9 -12 -4 -9 -10 10 -24 28 -22 62 -25
91 -10 27 15 24 26 -12 39 -34 12 -36 12 -59 4z"/>
<path d="M3270 5172 c0 -11 98 -28 107 -18 12 11 -7 19 -57 24 -31 3 -50 1
-50 -6z"/>
<path d="M4821 5140 c-21 -5 -21 -6 -4 -22 10 -9 24 -24 32 -33 13 -17 31 -17
136 -1 24 3 25 14 5 41 -12 17 -27 20 -81 20 -37 0 -76 -2 -88 -5z"/>
<path d="M3200 5120 c0 -5 5 -10 11 -10 5 0 7 5 4 10 -3 6 -8 10 -11 10 -2 0
-4 -4 -4 -10z"/>
<path d="M3680 5110 c0 -5 5 -10 10 -10 6 0 10 5 10 10 0 6 -4 10 -10 10 -5 0
-10 -4 -10 -10z"/>
<path d="M3395 5090 l-30 -8 32 -1 c17 0 35 4 38 9 7 11 3 11 -40 0z"/>
<path d="M2980 5080 c-12 -8 -11 -10 5 -9 11 1 34 5 50 9 l30 8 -35 1 c-19 0
-42 -4 -50 -9z"/>
<path d="M3388 5052 c-21 -2 -38 -8 -38 -14 0 -7 13 -8 34 -5 27 4 36 2 39
-11 4 -15 5 -15 6 -1 0 9 7 19 15 22 7 3 13 0 12 -6 -1 -14 6 -17 34 -17 11 0
20 5 20 10 0 6 -9 10 -19 10 -11 0 -22 4 -26 9 -3 6 -13 9 -23 8 -9 -1 -34 -3
-54 -5z"/>
<path d="M3295 5040 c-8 -13 5 -13 25 0 13 8 13 10 -2 10 -9 0 -20 -4 -23 -10z"/>
<path d="M3560 4938 c0 -37 5 -70 10 -73 6 -4 8 -11 4 -16 -3 -5 5 -18 18 -29
l23 -19 -22 -1 c-12 0 -29 10 -37 22 l-16 22 0 -21 c0 -12 5 -25 10 -28 18
-11 11 -27 -7 -17 -9 6 -24 29 -34 53 -22 55 -24 36 -3 -27 8 -25 13 -48 10
-52 -3 -3 -6 2 -6 10 0 22 -26 42 -35 28 -4 -6 -2 -17 5 -25 8 -10 8 -29 0
-73 -7 -41 -7 -68 0 -86 20 -53 19 -53 -190 -66 -148 -9 -160 -8 -278 16 -68
14 -126 24 -129 21 -3 -4 8 -9 23 -12 16 -4 57 -13 91 -22 59 -15 63 -18 73
-52 5 -20 10 -54 11 -76 l0 -40 14 30 c7 17 16 37 18 45 9 29 384 80 394 53 7
-18 32 -16 40 3 4 11 13 14 29 10 17 -5 24 -2 24 9 0 18 21 20 38 3 7 -7 29
-13 49 -15 20 -1 49 -11 64 -22 19 -14 29 -17 32 -8 2 6 4 -8 5 -33 4 -83 -33
-154 -124 -245 -33 -34 -49 -65 -34 -65 6 0 10 -7 10 -15 0 -29 35 -15 73 29
38 45 87 130 87 154 0 7 7 15 15 18 9 4 14 11 13 18 -1 6 4 22 10 36 14 31 34
139 27 150 -3 5 -1 10 4 12 5 1 11 14 12 28 5 42 -13 214 -24 235 -6 11 -10
29 -8 39 2 14 -1 17 -15 12 -9 -4 -28 1 -42 10 -24 16 -25 16 -20 -4 4 -16 2
-18 -14 -14 -18 4 -19 2 -9 -16 16 -30 14 -40 -4 -15 -12 18 -23 21 -63 19
-26 -2 -41 -1 -34 1 6 3 10 9 6 14 -3 6 12 7 38 4 l43 -6 -40 20 c-26 14 -50
19 -69 15 -22 -5 -28 -3 -24 7 6 16 -16 41 -27 31 -4 -4 -5 7 -1 23 3 17 2 37
-4 45 -7 11 -10 -5 -10 -52z m150 -139 c0 -7 8 -18 18 -25 16 -12 16 -13 0
-14 -10 0 -22 9 -28 19 -13 25 -13 31 0 31 6 0 10 -5 10 -11z m-40 -51 c0 -18
-17 -7 -29 19 -13 28 -13 28 8 9 12 -11 21 -23 21 -28z m-120 -22 c0 -8 6 -17
13 -20 6 -3 -1 -4 -18 0 -16 3 -34 10 -40 16 -7 7 -3 8 14 3 16 -5 21 -4 17 4
-4 6 -2 11 3 11 6 0 11 -6 11 -14z m194 -1 c3 -8 1 -15 -4 -15 -6 0 -10 7 -10
15 0 8 2 15 4 15 2 0 6 -7 10 -15z m-120 -31 c4 -10 12 -14 22 -10 25 10 46
-12 33 -35 -11 -22 -29 -25 -29 -5 0 15 -21 26 -52 26 -16 0 -18 3 -9 13 6 8
8 17 4 20 -3 4 1 7 9 7 9 0 19 -7 22 -16z m-99 -3 c3 -5 1 -12 -5 -16 -5 -3
-10 1 -10 9 0 18 6 21 15 7z m275 -175 c0 -3 -4 -8 -10 -11 -5 -3 -10 -1 -10
4 0 6 5 11 10 11 6 0 10 -2 10 -4z"/>
<path d="M3756 4965 c4 -8 11 -15 16 -15 6 0 5 6 -2 15 -7 8 -14 15 -16 15 -2
0 -1 -7 2 -15z"/>
<path d="M3596 4954 c-3 -8 -2 -12 3 -9 5 3 12 1 16 -5 3 -5 13 -10 22 -10 14
0 14 3 -2 20 -22 24 -31 25 -39 4z"/>
<path d="M3520 4915 c0 -8 2 -15 4 -15 2 0 6 7 10 15 3 8 1 15 -4 15 -6 0 -10
-7 -10 -15z"/>
<path d="M3681 4907 c2 -1 13 -9 24 -17 19 -14 19 -14 6 3 -7 9 -18 17 -24 17
-6 0 -8 -1 -6 -3z"/>
<path d="M2460 4650 c8 -5 22 -9 30 -9 10 0 8 3 -5 9 -27 12 -43 12 -25 0z"/>
<path d="M2699 4579 c11 -18 17 -38 14 -45 -4 -11 2 -13 24 -8 32 6 44 -4 61
-51 9 -26 9 -23 5 22 -5 48 -4 52 23 67 l29 15 -45 1 c-25 1 -63 7 -85 15 -22
8 -41 15 -42 15 -2 0 6 -14 16 -31z"/>
<path d="M2914 4524 c3 -9 6 -18 6 -20 0 -2 14 -4 30 -4 34 0 38 7 13 26 -26
19 -57 18 -49 -2z"/>
<path d="M3010 4496 c0 -3 9 -10 20 -16 11 -6 20 -8 20 -6 0 3 -9 10 -20 16
-11 6 -20 8 -20 6z"/>
<path d="M3675 4460 c3 -5 8 -10 11 -10 2 0 4 5 4 10 0 6 -5 10 -11 10 -5 0
-7 -4 -4 -10z"/>
<path d="M4776 4115 c-9 -26 -7 -32 5 -12 6 10 9 21 6 23 -2 3 -7 -2 -11 -11z"/>
<path d="M2118 4113 c6 -2 18 -2 25 0 6 3 1 5 -13 5 -14 0 -19 -2 -12 -5z"/>
<path d="M3610 4080 c-9 -6 -10 -10 -3 -10 6 0 15 5 18 10 8 12 4 12 -15 0z"/>
<path d="M3938 3762 c-10 -2 -18 -8 -18 -13 0 -11 11 -11 30 1 18 11 11 18
-12 12z"/>
<path d="M1528 3713 c6 -2 18 -2 25 0 6 3 1 5 -13 5 -14 0 -19 -2 -12 -5z"/>
<path d="M3995 3710 c3 -5 13 -10 21 -10 8 0 12 5 9 10 -3 6 -13 10 -21 10 -8
0 -12 -4 -9 -10z"/>
<path d="M4125 3680 c3 -5 8 -10 11 -10 2 0 4 5 4 10 0 6 -5 10 -11 10 -5 0
-7 -4 -4 -10z"/>
<path d="M3251 3640 c-5 -16 -8 -30 -6 -30 10 0 35 33 35 46 0 25 -18 15 -29
-16z"/>
<path d="M2892 3483 c8 -10 18 -26 21 -35 5 -15 27 -26 27 -15 0 18 -35 67
-47 67 -14 0 -14 -2 -1 -17z"/>
<path d="M2860 3249 c0 -5 5 -7 10 -4 6 3 10 8 10 11 0 2 -4 4 -10 4 -5 0 -10
-5 -10 -11z"/>
<path d="M3371 3100 c-82 -12 -134 -36 -155 -71 -25 -42 -15 -46 25 -9 33 30
77 38 72 12 -2 -6 4 -12 12 -12 8 0 15 4 15 10 0 18 49 43 63 33 6 -6 27 -10
45 -10 27 0 32 4 32 24 0 13 -6 23 -14 23 -8 0 -20 2 -28 4 -7 2 -37 0 -67 -4z"/>
<path d="M3555 3081 c-3 -5 -1 -12 4 -15 5 -3 11 1 15 9 6 16 -9 21 -19 6z"/>
<path d="M3595 3080 c-4 -6 3 -10 14 -10 25 0 27 6 6 13 -8 4 -17 2 -20 -3z"/>
<path d="M3321 2984 c0 -11 3 -14 6 -6 3 7 2 16 -1 19 -3 4 -6 -2 -5 -13z"/>
<path d="M3528 2784 c-11 -10 -10 -54 1 -54 11 0 78 -134 85 -171 3 -15 12
-26 22 -26 13 0 15 7 10 40 -8 47 -55 147 -73 154 -7 3 -13 11 -13 19 0 8 -4
14 -9 14 -5 0 -11 7 -13 16 -2 9 -6 12 -10 8z"/>
<path d="M3516 2697 c3 -10 9 -15 12 -12 3 3 0 11 -7 18 -10 9 -11 8 -5 -6z"/>
<path d="M3483 2556 c3 -8 11 -33 17 -55 11 -43 49 -95 82 -112 15 -8 24 -7
39 7 26 23 24 32 -6 26 -35 -6 -66 30 -84 96 -11 40 -19 52 -34 52 -13 0 -17
-5 -14 -14z"/>
<path d="M3656 2466 c-8 -29 -1 -30 17 -3 12 19 12 24 2 24 -8 0 -16 -10 -19
-21z"/>
<path d="M3690 2450 c0 -5 5 -10 11 -10 5 0 7 5 4 10 -3 6 -8 10 -11 10 -2 0
-4 -4 -4 -10z"/>
<path d="M3701 2344 c0 -11 3 -14 6 -6 3 7 2 16 -1 19 -3 4 -6 -2 -5 -13z"/>
<path d="M1642 2274 c-1 -27 2 -41 11 -41 6 0 22 -3 35 -7 16 -6 22 -3 22 8 0
9 -4 16 -9 16 -5 0 -11 14 -15 32 -7 36 -15 34 -18 -5 -3 -37 -16 -34 -21 6
-3 29 -4 28 -5 -9z"/>
<path d="M3915 2280 c-3 -5 -1 -10 4 -10 6 0 11 5 11 10 0 6 -2 10 -4 10 -3 0
-8 -4 -11 -10z"/>
<path d="M1636 2205 c-3 -9 -6 -24 -5 -33 0 -9 5 -4 10 12 9 32 6 48 -5 21z"/>
<path d="M1693 2195 c7 -17 -9 -30 -18 -15 -4 6 -11 8 -16 5 -18 -12 -9 -22
21 -23 25 -1 30 3 30 24 0 13 -5 24 -11 24 -6 0 -9 -7 -6 -15z"/>
<path d="M3653 1990 c-1 -11 2 -18 8 -15 11 7 12 35 1 35 -4 0 -8 -9 -9 -20z"/>
<path d="M2812 1923 c-22 -68 -28 -102 -15 -90 5 6 52 143 53 155 0 1 -4 2 -8
2 -5 0 -18 -30 -30 -67z"/>
<path d="M3078 1973 c6 -2 18 -2 25 0 6 3 1 5 -13 5 -14 0 -19 -2 -12 -5z"/>
<path d="M3163 1973 c9 -2 23 -2 30 0 6 3 -1 5 -18 5 -16 0 -22 -2 -12 -5z"/>
<path d="M3248 1973 c6 -2 18 -2 25 0 6 3 1 5 -13 5 -14 0 -19 -2 -12 -5z"/>
<path d="M3333 1973 c9 -2 23 -2 30 0 6 3 -1 5 -18 5 -16 0 -22 -2 -12 -5z"/>
<path d="M2353 1925 l-28 -25 95 3 c52 2 104 7 115 10 11 3 23 6 28 6 4 1 7 8
7 16 0 12 -17 15 -94 15 -87 0 -97 -2 -123 -25z"/>
<path d="M2904 1934 c3 -9 6 -18 6 -20 0 -2 9 -4 20 -4 13 0 20 7 20 20 0 15
-7 20 -26 20 -20 0 -25 -4 -20 -16z"/>
<path d="M2980 1930 c0 -15 7 -20 25 -20 18 0 25 5 25 20 0 15 -7 20 -25 20
-18 0 -25 -5 -25 -20z"/>
<path d="M3057 1944 c-12 -12 6 -34 29 -34 17 0 24 6 24 20 0 14 -7 20 -23 20
-13 0 -26 -3 -30 -6z"/>
<path d="M3140 1930 c0 -15 7 -20 29 -20 17 0 31 6 35 16 9 24 9 24 -29 24
-28 0 -35 -4 -35 -20z"/>
<path d="M3230 1930 c0 -20 15 -25 44 -14 28 11 18 34 -14 34 -23 0 -30 -4
-30 -20z"/>
<path d="M3320 1932 c0 -15 7 -19 35 -18 26 1 35 5 35 18 0 14 -8 18 -35 18
-27 0 -35 -4 -35 -18z"/>
<path d="M3420 1935 c0 -18 36 -20 43 -2 3 7 6 4 6 -6 1 -23 25 -17 29 6 3 14
-5 17 -37 17 -30 0 -41 -4 -41 -15z"/>
<path d="M3520 1936 c0 -19 40 -21 59 -3 11 10 12 9 6 -2 -5 -9 -3 -12 4 -10
28 10 13 24 -26 27 -34 2 -43 0 -43 -12z"/>
<path d="M3640 1935 c0 -10 10 -15 31 -15 17 0 37 7 45 15 14 13 10 15 -30 15
-34 0 -46 -4 -46 -15z"/>
<path d="M3750 1935 c0 -11 12 -15 50 -15 38 0 50 4 50 15 0 11 -12 15 -50 15
-38 0 -50 -4 -50 -15z"/>
<path d="M3880 1936 c0 -11 13 -14 55 -14 71 2 68 22 -3 26 -41 2 -52 0 -52
-12z"/>
<path d="M4016 1937 c3 -9 25 -14 59 -16 44 -2 55 1 55 13 0 13 -12 16 -60 16
-45 0 -58 -3 -54 -13z"/>
<path d="M4160 1935 c0 -12 13 -15 60 -15 47 0 60 3 60 15 0 12 -13 15 -60 15
-47 0 -60 -3 -60 -15z"/>
<path d="M4310 1935 c0 -12 14 -15 65 -15 51 0 65 3 65 15 0 12 -14 15 -65 15
-51 0 -65 -3 -65 -15z"/>
<path d="M4470 1935 c0 -12 14 -15 70 -15 56 0 70 3 70 15 0 12 -14 15 -70 15
-56 0 -70 -3 -70 -15z"/>
<path d="M4646 1935 c8 -20 154 -18 154 2 0 10 -22 13 -80 13 -66 0 -78 -2
-74 -15z"/>
<path d="M4830 1940 c0 -6 33 -10 80 -10 47 0 80 4 80 10 0 6 -33 10 -80 10
-47 0 -80 -4 -80 -10z"/>
<path d="M5020 1940 c0 -6 37 -10 90 -10 53 0 90 4 90 10 0 6 -37 10 -90 10
-53 0 -90 -4 -90 -10z"/>
<path d="M5230 1940 c0 -6 36 -10 89 -10 50 0 93 5 96 10 4 6 -28 10 -89 10
-57 0 -96 -4 -96 -10z"/>
<path d="M5697 1943 c-16 -15 -2 -18 88 -15 52 2 95 8 95 13 0 10 -173 13
-183 2z"/>
<path d="M5278 1902 c-40 -3 -48 -6 -48 -23 0 -17 8 -19 95 -19 52 0 95 3 95
8 0 4 -6 14 -13 23 -12 15 -37 17 -129 11z"/>
<path d="M4193 1893 c-25 -3 -33 -9 -33 -24 0 -17 7 -19 61 -19 57 0 60 1 57
23 -3 23 -23 28 -85 20z"/>
<path d="M4328 1892 c-10 -2 -18 -12 -18 -23 0 -17 7 -19 65 -19 51 0 65 3 65
15 0 8 0 18 0 23 0 7 -81 10 -112 4z"/>
<path d="M4470 1875 c0 -24 2 -25 74 -25 72 0 74 1 74 25 0 24 -2 25 -74 25
-72 0 -74 -1 -74 -25z"/>
<path d="M4650 1875 c0 -24 2 -25 75 -25 73 0 75 1 75 25 0 24 -2 25 -75 25
-73 0 -75 -1 -75 -25z"/>
<path d="M4832 1878 c3 -21 8 -23 53 -22 107 3 105 3 105 24 0 18 -7 20 -81
20 -78 0 -80 -1 -77 -22z"/>
<path d="M5020 1880 c0 -19 7 -20 90 -20 83 0 90 1 90 20 0 19 -7 20 -90 20
-83 0 -90 -1 -90 -20z"/>
<path d="M5745 1880 c27 -30 135 -25 135 6 0 11 -18 14 -77 14 -75 0 -76 0
-58 -20z"/>
<path d="M3158 1883 c-10 -2 -18 -13 -18 -24 0 -15 7 -19 35 -19 28 0 35 4 35
19 0 15 -24 36 -33 30 -1 -1 -10 -3 -19 -6z"/>
<path d="M3230 1866 c0 -22 4 -26 30 -26 23 0 30 4 30 20 0 11 -6 20 -14 20
-8 0 -21 3 -30 6 -12 5 -16 0 -16 -20z"/>
<path d="M3320 1865 c0 -19 5 -25 21 -25 11 0 17 5 14 10 -3 6 0 10 9 10 8 0
17 -6 19 -12 3 -7 6 -2 6 12 1 23 -4 26 -34 28 -31 2 -35 0 -35 -23z"/>
<path d="M3420 1863 c0 -18 6 -23 28 -23 32 0 46 9 50 31 2 13 -6 16 -38 15
-35 -1 -40 -4 -40 -23z"/>
<path d="M3530 1865 c0 -22 4 -25 34 -25 19 0 38 5 42 12 4 6 3 8 -4 4 -6 -3
-13 -2 -17 4 -3 5 2 10 11 10 14 0 15 3 6 12 -8 8 -15 8 -26 -1 -10 -8 -16 -9
-21 -1 -11 18 -25 11 -25 -15z"/>
<path d="M3640 1866 c0 -22 3 -23 34 -16 70 16 77 40 11 40 -41 0 -45 -2 -45
-24z"/>
<path d="M3750 1876 c0 -7 7 -19 15 -26 9 -8 15 -8 15 -2 0 7 13 9 35 5 31 -5
35 -3 35 16 0 19 -6 21 -50 21 -36 0 -50 -4 -50 -14z"/>
<path d="M3880 1883 c1 -19 18 -28 60 -31 40 -3 46 -1 47 17 2 19 -4 21 -53
21 -30 0 -54 -3 -54 -7z m70 -19 c0 -2 -7 -4 -15 -4 -8 0 -15 4 -15 10 0 5 7
7 15 4 8 -4 15 -8 15 -10z"/>
<path d="M4014 1874 c3 -9 6 -18 6 -20 0 -2 25 -4 55 -4 48 0 55 2 55 20 0 18
-7 20 -61 20 -52 0 -60 -2 -55 -16z"/>
<path d="M2301 1858 c-8 -23 -8 -23 98 -26 67 -2 107 1 109 8 2 5 12 10 23 10
10 0 19 7 19 15 0 13 -20 15 -120 15 -116 0 -121 -1 -129 -22z"/>
<path d="M2930 1873 c0 -5 5 -15 10 -23 8 -12 10 -11 10 8 0 12 -4 22 -10 22
-5 0 -10 -3 -10 -7z"/>
<path d="M2980 1860 c0 -15 7 -20 25 -20 18 0 25 5 25 20 0 15 -7 20 -25 20
-18 0 -25 -5 -25 -20z"/>
<path d="M3060 1860 c0 -15 7 -20 25 -20 18 0 25 5 25 20 0 15 -7 20 -25 20
-18 0 -25 -5 -25 -20z"/>
<path d="M5612 1850 c12 -16 23 -30 23 -30 1 0 2 13 1 30 -1 24 -5 30 -24 30
l-23 0 23 -30z"/>
<path d="M4756 1832 c-2 -2 -2 -12 1 -23 8 -28 43 -25 43 4 0 16 -6 23 -20 23
-12 0 -22 -2 -24 -4z"/>
<path d="M4837 1833 c-4 -3 -7 -15 -7 -26 0 -17 5 -19 38 -13 20 3 56 6 80 6
35 0 42 3 42 20 0 18 -7 20 -73 20 -41 0 -77 -3 -80 -7z"/>
<path d="M5027 1833 c-17 -16 -5 -33 23 -33 23 0 30 4 30 20 0 14 -7 20 -23
20 -13 0 -27 -3 -30 -7z"/>
<path d="M5150 1820 c0 -15 7 -20 25 -20 18 0 25 5 25 20 0 15 -7 20 -25 20
-18 0 -25 -5 -25 -20z"/>
<path d="M5230 1820 c0 -18 7 -20 78 -20 66 0 82 3 97 20 18 20 17 20 -78 20
-90 0 -97 -1 -97 -20z"/>
<path d="M5786 1825 c4 -10 20 -15 50 -15 32 0 44 4 44 15 0 11 -12 15 -50 15
-40 0 -48 -3 -44 -15z"/>
<path d="M4058 1823 c-29 -3 -38 -9 -38 -23 0 -17 7 -19 55 -19 46 1 55 4 55
19 0 14 -26 36 -33 28 -1 -1 -19 -3 -39 -5z"/>
<path d="M4173 1823 c-18 -7 -16 -43 2 -43 9 0 15 9 15 25 0 14 -1 25 -2 24
-2 0 -9 -3 -15 -6z"/>
<path d="M4254 1814 c3 -9 6 -20 6 -25 0 -5 5 -9 10 -9 6 0 10 11 10 25 0 16
-6 25 -16 25 -11 0 -14 -5 -10 -16z"/>
<path d="M4310 1810 c0 -18 7 -20 70 -20 63 0 70 2 70 20 0 18 -7 20 -70 20
-63 0 -70 -2 -70 -20z"/>
<path d="M4470 1810 c0 -18 7 -20 75 -20 68 0 75 2 75 20 0 18 -7 20 -75 20
-68 0 -75 -2 -75 -20z"/>
<path d="M4650 1810 c0 -13 7 -20 20 -20 13 0 20 7 20 20 0 13 -7 20 -20 20
-13 0 -20 -7 -20 -20z"/>
<path d="M3060 1791 c0 -25 3 -28 24 -24 32 6 41 30 16 43 -30 16 -40 12 -40
-19z"/>
<path d="M3146 1804 c-11 -29 -6 -34 29 -34 31 0 35 3 35 25 0 21 -5 25 -29
25 -17 0 -31 -6 -35 -16z"/>
<path d="M3230 1793 c0 -19 5 -23 30 -23 23 0 30 5 30 19 0 13 -9 20 -30 23
-26 4 -30 1 -30 -19z"/>
<path d="M3420 1795 c0 -22 4 -24 35 -23 27 1 34 5 30 15 -3 8 -5 19 -5 24 0
5 -13 9 -30 9 -25 0 -30 -4 -30 -25z"/>
<path d="M3530 1796 c0 -21 4 -23 34 -22 31 1 66 16 38 16 -6 0 -9 7 -6 15 5
12 -2 15 -30 15 -31 0 -36 -3 -36 -24z"/>
<path d="M3640 1800 c0 -17 7 -20 41 -20 34 0 39 2 30 14 -9 11 -9 15 1 19 7
3 -6 6 -29 6 -37 1 -43 -2 -43 -19z"/>
<path d="M3760 1800 c0 -17 7 -20 45 -20 38 0 45 3 45 20 0 17 -7 20 -45 20
-38 0 -45 -3 -45 -20z"/>
<path d="M3890 1799 c0 -11 5 -17 10 -14 6 3 10 13 10 21 0 8 -4 14 -10 14 -5
0 -10 -9 -10 -21z"/>
<path d="M3967 1800 c3 -11 8 -20 12 -20 4 0 7 9 7 20 0 11 -6 20 -12 20 -7 0
-10 -8 -7 -20z"/>
<path d="M2292 1783 c2 -16 9 -28 16 -27 6 1 53 2 104 3 50 0 88 4 85 7 -3 4
-2 15 4 25 9 18 4 19 -101 19 l-111 0 3 -27z"/>
<path d="M2980 1792 c0 -14 8 -21 30 -24 27 -4 31 -2 28 16 -4 29 -58 36 -58
8z"/>
<path d="M3320 1790 c0 -11 4 -20 8 -20 4 0 8 9 8 20 0 11 -4 20 -8 20 -4 0
-8 -9 -8 -20z"/>
<path d="M3381 1784 c0 -11 3 -14 6 -6 3 7 2 16 -1 19 -3 4 -6 -2 -5 -13z"/>
<path d="M5818 1784 c22 -39 61 -79 62 -63 0 8 -5 20 -12 27 -9 9 -9 12 0 12
7 0 12 7 12 15 0 8 -9 15 -19 15 -11 0 -27 3 -36 7 -15 5 -16 3 -7 -13z"/>
<path d="M5234 1776 c-3 -7 -4 -37 -2 -66 l3 -52 88 -4 c97 -5 96 -6 72 61 -8
22 -15 48 -15 58 0 14 -10 17 -70 17 -51 0 -72 -4 -76 -14z"/>
<path d="M3543 1753 c-7 -2 -13 -15 -13 -27 0 -19 4 -21 40 -18 34 4 40 7 40
28 0 20 -5 24 -27 23 -16 0 -34 -3 -40 -6z"/>
<path d="M3640 1732 c0 -21 4 -23 45 -21 40 2 45 6 45 26 0 20 -4 22 -45 21
-40 -2 -45 -5 -45 -26z"/>
<path d="M2947 1743 c-11 -10 -8 -53 3 -53 6 0 10 14 10 30 0 31 -2 35 -13 23z"/>
<path d="M2987 1743 c-12 -11 -8 -43 6 -44 6 0 20 -2 30 -4 13 -2 17 4 17 26
0 24 -4 29 -23 29 -13 0 -27 -3 -30 -7z"/>
<path d="M3060 1726 c0 -22 4 -26 31 -26 26 0 30 3 27 23 -2 16 -11 23 -30 25
-24 3 -28 0 -28 -22z"/>
<path d="M3147 1743 c-2 -5 -2 -24 -1 -43 1 -19 3 -52 3 -72 1 -35 3 -38 30
-38 l29 0 1 80 1 80 -29 0 c-16 0 -32 -3 -34 -7z"/>
<path d="M3232 1728 c2 -18 11 -24 36 -26 29 -3 32 -1 32 22 0 23 -4 26 -36
26 -31 0 -35 -3 -32 -22z"/>
<path d="M3320 1729 c0 -11 7 -19 16 -19 8 0 12 5 9 10 -3 6 -2 10 4 10 5 0
13 -4 16 -10 11 -17 35 -11 35 9 0 16 -7 20 -40 19 -32 0 -40 -4 -40 -19z"/>
<path d="M3422 1733 c3 -18 47 -29 74 -19 29 11 3 36 -38 36 -32 0 -39 -3 -36
-17z"/>
<path d="M1437 1725 c3 -8 9 -12 14 -9 12 7 11 11 -5 17 -10 4 -13 1 -9 -8z"/>
<path d="M2304 1724 c3 -9 6 -20 6 -25 0 -5 45 -9 100 -9 96 0 100 1 90 19 -7
14 -6 21 3 24 6 3 -37 6 -97 6 -95 1 -107 -1 -102 -15z"/>
<path d="M1450 1679 c0 -11 5 -17 10 -14 6 3 10 13 10 21 0 8 -4 14 -10 14 -5
0 -10 -9 -10 -21z"/>
<path d="M3257 1682 c-21 -2 -27 -8 -23 -19 3 -8 6 -18 6 -23 0 -17 55 -3 58
15 5 23 -7 31 -41 27z"/>
<path d="M2923 1663 c-3 -10 -8 -21 -10 -25 -2 -5 7 -8 21 -8 21 0 26 5 26 25
0 29 -27 35 -37 8z"/>
<path d="M2990 1656 c0 -18 7 -26 23 -29 l22 -4 -22 -8 c-31 -10 -30 -35 1
-35 29 0 33 8 28 61 -4 33 -7 39 -28 39 -19 0 -24 -5 -24 -24z"/>
<path d="M3060 1655 c0 -22 4 -25 36 -25 29 0 35 3 30 16 -3 9 -6 20 -6 25 0
5 -13 9 -30 9 -25 0 -30 -4 -30 -25z"/>
<path d="M3083 1613 c-24 -9 -13 -23 18 -23 19 0 29 4 27 12 -4 12 -26 18 -45
11z"/>
<path d="M3240 1604 c0 -9 11 -14 30 -14 18 0 30 5 30 13 0 9 -12 14 -30 15
-20 0 -30 -4 -30 -14z"/>
<path d="M2890 1595 c0 -10 11 -15 35 -15 24 0 35 5 35 15 0 10 -11 15 -35 15
-24 0 -35 -5 -35 -15z"/>
<path d="M2191 1589 c-13 -5 -22 -11 -20 -14 8 -7 49 7 49 16 0 5 -1 9 -2 8
-2 0 -14 -5 -27 -10z"/>
<path d="M1491 1122 c-7 -24 -10 -51 -8 -60 2 -10 9 2 16 26 7 24 10 51 8 60
-2 10 -9 -2 -16 -26z"/>
<path d="M5700 1101 c0 -5 -3 -16 -6 -25 -10 -27 32 -19 50 9 16 25 16 25 -14
25 -16 0 -30 -4 -30 -9z"/>
<path d="M1721 1064 c0 -11 3 -14 6 -6 3 7 2 16 -1 19 -3 4 -6 -2 -5 -13z"/>
<path d="M5866 1035 c-3 -8 -1 -15 4 -15 6 0 10 7 10 15 0 8 -2 15 -4 15 -2 0
-6 -7 -10 -15z"/>
<path d="M1472 1010 c0 -14 2 -19 5 -12 2 6 2 18 0 25 -3 6 -5 1 -5 -13z"/>
<path d="M5808 1023 c6 -2 18 -2 25 0 6 3 1 5 -13 5 -14 0 -19 -2 -12 -5z"/>
<path d="M1462 955 c0 -16 2 -22 5 -12 2 9 2 23 0 30 -3 6 -5 -1 -5 -18z"/>
<path d="M1453 685 c0 -27 2 -38 4 -22 2 15 2 37 0 50 -2 12 -4 0 -4 -28z"/>
<path d="M1129 611 c13 -12 28 -21 34 -21 12 0 11 0 -28 24 l-30 17 24 -20z"/>
<path d="M1442 595 c0 -16 2 -22 5 -12 2 9 2 23 0 30 -3 6 -5 -1 -5 -18z"/>
<path d="M950 469 c-47 -4 -195 -13 -330 -19 -135 -6 -294 -15 -355 -21 -60
-5 -145 -9 -187 -9 -65 0 -78 -3 -78 -16 0 -14 15 -15 138 -9 75 4 150 9 165
10 16 2 115 7 220 11 106 3 194 8 197 9 4 2 80 7 171 10 182 8 230 14 237 33
4 14 -41 14 -178 1z"/>
<path d="M5798 313 c7 -3 16 -2 19 1 4 3 -2 6 -13 5 -11 0 -14 -3 -6 -6z"/>
</g>
</svg>
